<svg width="19" height="15" viewBox="0 0 19 15" fill="none" xmlns="http://www.w3.org/2000/svg">
<path d="M18.2806 8.03055L11.5306 14.7806C11.3899 14.9213 11.199 15.0003 11 15.0003C10.801 15.0003 10.6101 14.9213 10.4694 14.7806C10.3286 14.6398 10.2496 14.449 10.2496 14.2499C10.2496 14.0509 10.3286 13.86 10.4694 13.7193L15.9397 8.24993H1.25C1.05109 8.24993 0.860322 8.17091 0.71967 8.03026C0.579018 7.88961 0.5 7.69884 0.5 7.49993C0.5 7.30102 0.579018 7.11025 0.71967 6.9696C0.860322 6.82895 1.05109 6.74993 1.25 6.74993H15.9397L10.4694 1.28055C10.3286 1.13982 10.2496 0.948952 10.2496 0.749929C10.2496 0.550906 10.3286 0.360034 10.4694 0.219304C10.6101 0.0785732 10.801 -0.000488281 11 -0.000488281C11.199 -0.000488281 11.3899 0.0785732 11.5306 0.219304L18.2806 6.9693C18.3504 7.03896 18.4057 7.12168 18.4434 7.21272C18.4812 7.30377 18.5006 7.40137 18.5006 7.49993C18.5006 7.59849 18.4812 7.69609 18.4434 7.78713C18.4057 7.87818 18.3504 7.9609 18.2806 8.03055Z" fill="black"/>
</svg>
