<svg width="18" height="16" viewBox="0 0 18 16" fill="none" xmlns="http://www.w3.org/2000/svg">
<path d="M0.219376 8.53068L6.96937 15.2807C7.11011 15.4214 7.30098 15.5005 7.5 15.5005C7.69902 15.5005 7.88989 15.4214 8.03063 15.2807C8.17136 15.1399 8.25042 14.9491 8.25042 14.7501C8.25042 14.551 8.17136 14.3602 8.03063 14.2194L2.56031 8.75005H17.25C17.4489 8.75005 17.6397 8.67103 17.7803 8.53038C17.921 8.38973 18 8.19896 18 8.00005C18 7.80114 17.921 7.61037 17.7803 7.46972C17.6397 7.32907 17.4489 7.25005 17.25 7.25005H2.56031L8.03063 1.78068C8.17136 1.63995 8.25042 1.44907 8.25042 1.25005C8.25042 1.05103 8.17136 0.860156 8.03063 0.719426C7.88989 0.578695 7.69902 0.499634 7.5 0.499634C7.30098 0.499634 7.11011 0.578695 6.96937 0.719426L0.219376 7.46943C0.149643 7.53908 0.0943222 7.6218 0.0565796 7.71285C0.018837 7.80389 -0.000589371 7.90149 -0.000589371 8.00005C-0.000589371 8.09861 0.018837 8.19621 0.0565796 8.28726C0.0943222 8.3783 0.149643 8.46102 0.219376 8.53068Z" fill="white"/>
</svg>
