<svg width="22" height="22" viewBox="0 0 22 22" fill="none" xmlns="http://www.w3.org/2000/svg">
<path d="M10.4972 12.8139C10.4222 12.7012 10.3206 12.6088 10.2013 12.5449C10.082 12.481 9.94872 12.4476 9.81338 12.4476C9.67803 12.4476 9.54479 12.481 9.42548 12.5449C9.30618 12.6088 9.20452 12.7012 9.12954 12.8139L6.98869 16.0267L5.98655 14.4681C5.91217 14.3523 5.80993 14.2571 5.68919 14.1912C5.56845 14.1253 5.43309 14.0907 5.29552 14.0907C5.15795 14.0907 5.02259 14.1253 4.90185 14.1912C4.78112 14.2571 4.67887 14.3523 4.60449 14.4681L0.908065 20.2181C0.828185 20.3422 0.783214 20.4855 0.77788 20.633C0.772547 20.7805 0.807048 20.9267 0.877756 21.0562C0.948464 21.1858 1.05277 21.2939 1.1797 21.3692C1.30663 21.4444 1.45151 21.4842 1.59909 21.4841H14.7419C14.8907 21.4842 15.0367 21.4439 15.1643 21.3675C15.292 21.2911 15.3965 21.1815 15.4667 21.0504C15.5369 20.9192 15.5701 20.7715 15.5629 20.6229C15.5557 20.4743 15.5083 20.3305 15.4258 20.2068L10.4972 12.8139ZM3.10333 19.8412L5.29552 16.4313L6.28431 17.9715C6.35806 18.0863 6.45925 18.1809 6.57874 18.2468C6.69822 18.3127 6.83224 18.3478 6.96869 18.3489C7.10514 18.35 7.23972 18.3171 7.36028 18.2532C7.48083 18.1893 7.58356 18.0963 7.65918 17.9828L9.81543 14.7515L13.2069 19.8412H3.10333ZM21.0721 6.11722L15.3221 0.367221C15.1682 0.213464 14.9595 0.127054 14.7419 0.126953H4.88481C4.44909 0.126953 4.03123 0.300039 3.72313 0.608135C3.41503 0.91623 3.24195 1.3341 3.24195 1.76981V10.8055C3.24195 11.0234 3.32849 11.2323 3.48254 11.3864C3.63659 11.5404 3.84552 11.627 4.06338 11.627C4.28123 11.627 4.49017 11.5404 4.64421 11.3864C4.79826 11.2323 4.88481 11.0234 4.88481 10.8055V1.76981H13.9205V6.69838C13.9205 6.91624 14.0071 7.12517 14.1611 7.27922C14.3152 7.43327 14.5241 7.51981 14.7419 7.51981H19.6705V19.8412H18.8491C18.6312 19.8412 18.4223 19.9278 18.2683 20.0818C18.1142 20.2359 18.0277 20.4448 18.0277 20.6627C18.0277 20.8805 18.1142 21.0895 18.2683 21.2435C18.4223 21.3976 18.6312 21.4841 18.8491 21.4841H19.6705C20.1062 21.4841 20.5241 21.311 20.8322 21.0029C21.1403 20.6948 21.3134 20.277 21.3134 19.8412V6.69838C21.3135 6.59048 21.2923 6.48362 21.2511 6.3839C21.2098 6.28418 21.1494 6.19356 21.0731 6.11722H21.0721ZM15.5634 2.93111L18.5092 5.87695H15.5634V2.93111Z" fill="white"/>
</svg>
