<svg width="19" height="23" viewBox="0 0 19 23" fill="none" xmlns="http://www.w3.org/2000/svg">
<path d="M15.0147 14.4074C14.8017 15.5971 14.2293 16.693 13.3745 17.5476C12.5198 18.4022 11.4237 18.9743 10.2339 19.1871C10.1888 19.1943 10.1431 19.1981 10.0974 19.1984C9.89133 19.1983 9.69283 19.1208 9.54124 18.9813C9.38965 18.8417 9.29604 18.6503 9.27898 18.4449C9.26192 18.2396 9.32266 18.0353 9.44914 17.8727C9.57563 17.71 9.75863 17.6008 9.96184 17.5668C11.6632 17.2803 13.1069 15.8367 13.3954 14.1322C13.4319 13.9173 13.5523 13.7258 13.73 13.5996C13.9077 13.4735 14.1283 13.4232 14.3431 13.4596C14.558 13.4961 14.7496 13.6165 14.8757 13.7942C15.0018 13.972 15.0522 14.1925 15.0157 14.4074H15.0147ZM18.3117 13.4484C18.3117 15.8448 17.3597 18.143 15.6652 19.8376C13.9706 21.5321 11.6724 22.4841 9.27595 22.4841C6.87953 22.4841 4.58126 21.5321 2.88673 19.8376C1.19221 18.143 0.240234 15.8448 0.240234 13.4484C0.240234 10.5816 1.3697 7.6501 3.59372 4.73608C3.66412 4.64381 3.75327 4.5675 3.8553 4.51219C3.95733 4.45688 4.06993 4.42382 4.18566 4.41518C4.3014 4.40655 4.41766 4.42254 4.52676 4.4621C4.63587 4.50166 4.73536 4.56389 4.81867 4.64469L7.29528 7.0484L9.55421 0.845587C9.59934 0.721874 9.67355 0.610824 9.77059 0.521799C9.86763 0.432775 9.98465 0.368386 10.1118 0.33406C10.2389 0.299734 10.3724 0.296478 10.5011 0.324567C10.6298 0.352655 10.7498 0.411264 10.851 0.495453C13.0966 2.35907 18.3117 7.34411 18.3117 13.4484ZM16.6688 13.4484C16.6688 8.7159 12.9939 4.62621 10.6919 2.53054L8.40523 8.80112C8.3583 8.92991 8.27989 9.04491 8.17714 9.13564C8.07438 9.22636 7.95056 9.28994 7.81695 9.32056C7.68334 9.35118 7.54419 9.34788 7.41218 9.31095C7.28017 9.27403 7.15951 9.20466 7.06117 9.10916L4.35354 6.48264C2.71376 8.84938 1.88309 11.1894 1.88309 13.4484C1.88309 15.4091 2.66198 17.2895 4.04841 18.6759C5.43484 20.0623 7.31524 20.8412 9.27595 20.8412C11.2367 20.8412 13.1171 20.0623 14.5035 18.6759C15.8899 17.2895 16.6688 15.4091 16.6688 13.4484Z" fill="white"/>
</svg>
