<svg width="49" height="40" viewBox="0 0 49 40" fill="none" xmlns="http://www.w3.org/2000/svg">
<path d="M46.7858 24.6531C46.1811 24.1878 45.4773 23.8683 44.729 23.7192C43.9808 23.5702 43.2082 23.5958 42.4714 23.7938L33.9727 25.7479C34.1704 24.9126 34.1765 24.0435 33.9905 23.2055C33.8046 22.3675 33.4313 21.5825 32.8988 20.9093C32.3663 20.2361 31.6883 19.6922 30.9157 19.3183C30.1431 18.9443 29.2959 18.7502 28.4375 18.7502H18.2691C17.4151 18.7481 16.5692 18.9152 15.7802 19.2419C14.9913 19.5686 14.2748 20.0484 13.6723 20.6535L9.07766 25.2502H3.25C2.38805 25.2502 1.5614 25.5927 0.951903 26.2022C0.34241 26.8116 0 27.6383 0 28.5002L0 36.6252C0 37.4872 0.34241 38.3139 0.951903 38.9233C1.5614 39.5328 2.38805 39.8752 3.25 39.8752H24.375C24.5079 39.8753 24.6402 39.8589 24.7691 39.8265L37.7691 36.5765C37.8519 36.5568 37.9328 36.5296 38.0108 36.4952L45.9063 33.1356L45.9956 33.0949C46.7544 32.7158 47.4042 32.1497 47.8838 31.4499C48.3633 30.7502 48.6569 29.94 48.7367 29.0955C48.8166 28.251 48.6802 27.4 48.3403 26.6228C48.0004 25.8456 47.4682 25.1677 46.7939 24.6531H46.7858ZM3.25 28.5002H8.125V36.6252H3.25V28.5002ZM44.5717 30.1679L36.853 33.4545L24.1719 36.6252H11.375V27.5476L15.9717 22.9529C16.2724 22.6498 16.6304 22.4095 17.0248 22.2459C17.4191 22.0824 17.8421 21.9989 18.2691 22.0002H28.4375C29.084 22.0002 29.704 22.2571 30.1611 22.7142C30.6182 23.1713 30.875 23.7913 30.875 24.4377C30.875 25.0842 30.6182 25.7042 30.1611 26.1613C29.704 26.6184 29.084 26.8752 28.4375 26.8752H22.75C22.319 26.8752 21.9057 27.0465 21.601 27.3512C21.2962 27.6559 21.125 28.0693 21.125 28.5002C21.125 28.9312 21.2962 29.3446 21.601 29.6493C21.9057 29.954 22.319 30.1252 22.75 30.1252H29.25C29.3723 30.1249 29.4942 30.1113 29.6136 30.0846L43.223 26.9545L43.2859 26.9382C43.7014 26.8229 44.1448 26.8653 44.5309 27.0572C44.917 27.2492 45.2184 27.5771 45.3773 27.9779C45.5361 28.3788 45.5411 28.8242 45.3912 29.2285C45.2414 29.6328 44.9473 29.9674 44.5656 30.1679H44.5717ZM33.3125 15.5002C33.714 15.5007 34.1148 15.4681 34.5109 15.4027C34.9565 16.7262 35.7717 17.8944 36.8601 18.7692C37.9486 19.6441 39.2648 20.1889 40.6531 20.3395C42.0414 20.49 43.4437 20.2398 44.6944 19.6186C45.945 18.9973 46.9916 18.031 47.7105 16.8338C48.4293 15.6366 48.7903 14.2585 48.7508 12.8627C48.7113 11.4668 48.2729 10.1114 47.4875 8.95677C46.7021 7.80213 45.6025 6.89653 44.3187 6.34702C43.035 5.79751 41.6207 5.62708 40.2431 5.85587C39.8141 4.58075 39.0416 3.44869 38.0107 2.58429C36.9798 1.7199 35.7303 1.15666 34.3999 0.956572C33.0695 0.756484 31.7097 0.927299 30.4701 1.45022C29.2306 1.97314 28.1593 2.8279 27.3742 3.92042C26.5891 5.01295 26.1206 6.30089 26.0203 7.64251C25.9199 8.98413 26.1917 10.3274 26.8056 11.5245C27.4195 12.7217 28.3518 13.7262 29.4998 14.4277C30.6478 15.1291 31.9671 15.5003 33.3125 15.5002ZM45.5 13.0627C45.5 13.8662 45.2617 14.6517 44.8153 15.3198C44.369 15.9878 43.7345 16.5085 42.9922 16.816C42.2498 17.1235 41.433 17.2039 40.6449 17.0472C39.8569 16.8904 39.133 16.5035 38.5649 15.9354C37.9967 15.3672 37.6098 14.6434 37.4531 13.8553C37.2963 13.0673 37.3768 12.2504 37.6842 11.5081C37.9917 10.7658 38.5124 10.1313 39.1805 9.6849C39.8486 9.23851 40.634 9.00025 41.4375 9.00025C42.5149 9.00025 43.5483 9.42826 44.3101 10.1901C45.072 10.952 45.5 11.9853 45.5 13.0627ZM33.3125 4.12525C34.1987 4.12569 35.0605 4.41593 35.7665 4.95172C36.4724 5.48751 36.9838 6.23945 37.2227 7.0929C36.3904 7.6785 35.6895 8.43137 35.1649 9.30334C34.6402 10.1753 34.3033 11.1472 34.1758 12.1568C33.8921 12.2181 33.6027 12.2494 33.3125 12.2502C32.2351 12.2502 31.2017 11.8222 30.4399 11.0604C29.678 10.2985 29.25 9.26519 29.25 8.18775C29.25 7.11031 29.678 6.07699 30.4399 5.31513C31.2017 4.55326 32.2351 4.12525 33.3125 4.12525Z" fill="white"/>
</svg>
