<svg width="16" height="15" viewBox="0 0 16 15" fill="none" xmlns="http://www.w3.org/2000/svg">
<path d="M14.7145 2.14647C12.9744 0.406815 10.1436 0.406815 8.40393 2.14647L7.99986 2.55031L7.59603 2.14647C5.85637 0.406579 3.02531 0.406579 1.28565 2.14647C-0.418689 3.85081 -0.429756 6.55236 1.25998 8.43072C2.80114 10.1433 7.34643 13.8432 7.53928 13.9998C7.6702 14.1063 7.82773 14.1581 7.98432 14.1581C7.9895 14.1581 7.99468 14.1581 7.99963 14.1578C8.16163 14.1654 8.32481 14.1098 8.45997 13.9998C8.65282 13.8432 13.1986 10.1433 14.7402 8.43048C16.4297 6.55236 16.4186 3.85081 14.7145 2.14647ZM13.69 7.48554C12.4884 8.82042 9.18546 11.5735 7.99963 12.5505C6.8138 11.5738 3.51155 8.82089 2.31018 7.48577C1.13142 6.17561 1.12035 4.30974 2.28452 3.14558C2.87908 2.55125 3.6599 2.25385 4.44072 2.25385C5.22154 2.25385 6.00236 2.55101 6.59693 3.14558L7.48512 4.03377C7.59085 4.1395 7.72412 4.2026 7.86399 4.22474C8.09099 4.27348 8.33729 4.21014 8.51389 4.03401L9.40256 3.14558C10.5919 1.95668 12.5266 1.95692 13.7152 3.14558C14.8794 4.30974 14.8683 6.17561 13.69 7.48554Z" fill="#848484"/>
</svg>
