<svg width="22" height="23" viewBox="0 0 22 23" fill="none" xmlns="http://www.w3.org/2000/svg">
<path d="M12.1156 0.87145C12.9061 0.868417 13.6967 0.876362 14.487 0.895284L14.6972 0.902867C14.9398 0.911533 15.1793 0.922367 15.4685 0.935367C16.6212 0.989533 17.4077 1.17153 18.0978 1.43912C18.8128 1.71428 19.4151 2.08695 20.0174 2.68928C20.5682 3.23052 20.9944 3.88522 21.2665 4.60787C21.5341 5.29795 21.7161 6.08553 21.7703 7.2382C21.7833 7.52636 21.7941 7.76686 21.8027 8.00953L21.8092 8.2197C21.8285 9.00965 21.8368 9.79984 21.8342 10.59L21.8353 11.3982V12.8174C21.8379 13.6079 21.8296 14.3985 21.8103 15.1888L21.8038 15.3989C21.7952 15.6416 21.7843 15.881 21.7713 16.1703C21.7172 17.3229 21.533 18.1094 21.2665 18.7995C20.9953 19.5229 20.5689 20.1782 20.0174 20.7192C19.4757 21.2699 18.8207 21.6961 18.0978 21.9683C17.4077 22.2359 16.6212 22.4179 15.4685 22.472C15.1793 22.485 14.9398 22.4959 14.6972 22.5045L14.487 22.511C13.6967 22.5303 12.9061 22.5386 12.1156 22.5359L11.3074 22.537H9.88934C9.09879 22.5397 8.30824 22.5314 7.51792 22.5121L7.30776 22.5056C7.05058 22.4963 6.79347 22.4855 6.53642 22.4731C5.38376 22.4189 4.59726 22.2348 3.90609 21.9683C3.18317 21.6967 2.52835 21.2704 1.98751 20.7192C1.43614 20.1778 1.0095 19.5227 0.737344 18.7995C0.46976 18.1094 0.28776 17.3229 0.233594 16.1703C0.221529 15.9132 0.210695 15.6561 0.201094 15.3989L0.195677 15.1888C0.175704 14.3985 0.166676 13.6079 0.168594 12.8174V10.59C0.16557 9.79985 0.173516 9.00966 0.192427 8.2197L0.200011 8.00953C0.208677 7.76686 0.21951 7.52636 0.23251 7.2382C0.286677 6.08445 0.468677 5.29903 0.73626 4.60787C1.00858 3.88487 1.43605 3.23035 1.98859 2.69037C2.52906 2.13868 3.18347 1.71165 3.90609 1.43912C4.59726 1.17153 5.38267 0.989533 6.53642 0.935367L7.30776 0.902867L7.51792 0.89745C8.30787 0.877488 9.09806 0.868459 9.88826 0.870367L12.1156 0.87145ZM11.0019 6.28811C10.2842 6.27796 9.57166 6.41056 8.90565 6.67819C8.23964 6.94582 7.63346 7.34315 7.12234 7.84709C6.61122 8.35103 6.20536 8.95153 5.92834 9.61369C5.65131 10.2758 5.50866 10.9865 5.50866 11.7042C5.50866 12.422 5.65131 13.1326 5.92834 13.7948C6.20536 14.4569 6.61122 15.0574 7.12234 15.5614C7.63346 16.0653 8.23964 16.4627 8.90565 16.7303C9.57166 16.9979 10.2842 17.1305 11.0019 17.1204C12.4385 17.1204 13.8163 16.5497 14.8321 15.5339C15.8479 14.518 16.4186 13.3227 16.4186 11.7037C16.4186 10.0847 15.8479 8.88936 14.8321 7.87354C13.8163 6.85771 12.4385 6.28811 11.0019 6.28811ZM11.0019 8.45478C11.4336 8.44683 11.8626 8.52498 12.2638 8.68467C12.665 8.84436 13.0303 9.0824 13.3384 9.38487C13.6466 9.68734 13.8914 10.0482 14.0585 10.4463C14.2256 10.8445 14.3117 11.2719 14.3118 11.7037C14.3119 12.1355 14.2259 12.5629 14.0589 12.9611C13.8919 13.3593 13.6473 13.7203 13.3392 14.0228C13.0312 14.3254 12.6659 14.5636 12.2648 14.7234C11.8637 14.8832 11.4347 14.9615 11.003 14.9537C10.1411 14.9537 9.3144 14.6113 8.70491 14.0018C8.09542 13.3923 7.75301 12.5656 7.75301 11.7037C7.75301 10.8417 8.09542 10.0151 8.70491 9.4056C9.3144 8.79611 10.1411 8.4537 11.003 8.4537L11.0019 8.45478ZM16.6894 4.66312C16.3399 4.6771 16.0094 4.82578 15.7671 5.078C15.5247 5.33022 15.3894 5.66643 15.3894 6.0162C15.3894 6.36597 15.5247 6.70217 15.7671 6.9544C16.0094 7.20662 16.3399 7.35529 16.6894 7.36928C17.0486 7.36928 17.393 7.22661 17.647 6.97265C17.9009 6.7187 18.0436 6.37426 18.0436 6.01511C18.0436 5.65597 17.9009 5.31153 17.647 5.05757C17.393 4.80362 17.0486 4.66095 16.6894 4.66095V4.66312Z" fill="white"/>
</svg>
