<svg width="20" height="23" viewBox="0 0 20 23" fill="none" xmlns="http://www.w3.org/2000/svg">
<path d="M18.3109 7.5125H14.9859V5.01875C14.9859 3.69598 14.4605 2.42739 13.5251 1.49205C12.5898 0.556717 11.3212 0.03125 9.99844 0.03125C8.67567 0.03125 7.40708 0.556717 6.47174 1.49205C5.53641 2.42739 5.01094 3.69598 5.01094 5.01875V7.5125H1.68594C1.24502 7.5125 0.822152 7.68766 0.510372 7.99944C0.198593 8.31121 0.0234375 8.73408 0.0234375 9.175V20.8125C0.0234375 21.2534 0.198593 21.6763 0.510372 21.9881C0.822152 22.2998 1.24502 22.475 1.68594 22.475H18.3109C18.7519 22.475 19.1747 22.2998 19.4865 21.9881C19.7983 21.6763 19.9734 21.2534 19.9734 20.8125V9.175C19.9734 8.73408 19.7983 8.31121 19.4865 7.99944C19.1747 7.68766 18.7519 7.5125 18.3109 7.5125ZM6.67344 5.01875C6.67344 4.13691 7.02375 3.29118 7.64731 2.66762C8.27087 2.04406 9.11659 1.69375 9.99844 1.69375C10.8803 1.69375 11.726 2.04406 12.3496 2.66762C12.9731 3.29118 13.3234 4.13691 13.3234 5.01875V7.5125H6.67344V5.01875ZM18.3109 20.8125H1.68594V9.175H18.3109V20.8125ZM9.99844 10.8375C9.29977 10.8377 8.62452 11.0894 8.0961 11.5465C7.56769 12.0035 7.2214 12.6355 7.12052 13.3268C7.01965 14.0182 7.17094 14.7227 7.54673 15.3117C7.92252 15.9007 8.49771 16.3348 9.16719 16.5347V18.3188C9.16719 18.5392 9.25477 18.7506 9.41066 18.9065C9.56654 19.0624 9.77798 19.15 9.99844 19.15C10.2189 19.15 10.4303 19.0624 10.5862 18.9065C10.7421 18.7506 10.8297 18.5392 10.8297 18.3188V16.5347C11.4992 16.3348 12.0744 15.9007 12.4501 15.3117C12.8259 14.7227 12.9772 14.0182 12.8764 13.3268C12.7755 12.6355 12.4292 12.0035 11.9008 11.5465C11.3724 11.0894 10.6971 10.8377 9.99844 10.8375ZM9.99844 14.9938C9.75183 14.9938 9.51076 14.9206 9.30571 14.7836C9.10066 14.6466 8.94085 14.4519 8.84648 14.224C8.7521 13.9962 8.72741 13.7455 8.77552 13.5036C8.82363 13.2618 8.94238 13.0396 9.11676 12.8652C9.29114 12.6908 9.51331 12.5721 9.75518 12.524C9.99705 12.4758 10.2478 12.5005 10.4756 12.5949C10.7034 12.6893 10.8982 12.8491 11.0352 13.0541C11.1722 13.2592 11.2453 13.5003 11.2453 13.7469C11.2453 14.0776 11.1139 14.3947 10.8801 14.6285C10.6463 14.8624 10.3291 14.9938 9.99844 14.9938Z" fill="white"/>
</svg>
