<svg width="19" height="22" viewBox="0 0 19 22" fill="none" xmlns="http://www.w3.org/2000/svg">
<path d="M3.85349 18.0341C3.93982 18.099 4.0381 18.1462 4.1427 18.1731C4.2473 18.1999 4.35616 18.2059 4.46307 18.1906C4.56998 18.1754 4.67283 18.1392 4.76574 18.0841C4.85865 18.0291 4.93979 17.9563 5.00452 17.8698C5.50186 17.2067 6.14676 16.6685 6.88815 16.2978C7.62954 15.9271 8.44705 15.7341 9.27595 15.7341C10.1048 15.7341 10.9224 15.9271 11.6637 16.2978C12.4051 16.6685 13.05 17.2067 13.5474 17.8698C13.6121 17.9561 13.6932 18.0288 13.786 18.0838C13.8788 18.1387 13.9816 18.1749 14.0884 18.1901C14.1951 18.2054 14.3039 18.1995 14.4084 18.1727C14.5129 18.1459 14.6111 18.0988 14.6974 18.0341C14.7837 17.9694 14.8564 17.8883 14.9113 17.7955C14.9663 17.7026 15.0024 17.5999 15.0177 17.4931C15.0329 17.3863 15.027 17.2776 15.0002 17.1731C14.9735 17.0686 14.9264 16.9704 14.8617 16.8841C14.1343 15.9089 13.1644 15.1411 12.0483 14.657C12.6599 14.0986 13.0884 13.3683 13.2776 12.5619C13.4668 11.7556 13.4077 10.9109 13.1083 10.1388C12.8088 9.36657 12.2829 8.70297 11.5995 8.23504C10.9161 7.76711 10.1072 7.51672 9.27903 7.51672C8.45081 7.51672 7.64194 7.76711 6.95857 8.23504C6.2752 8.70297 5.74927 9.36657 5.44979 10.1388C5.15031 10.9109 5.09128 11.7556 5.28045 12.5619C5.46962 13.3683 5.89814 14.0986 6.50979 14.657C5.39145 15.1402 4.4193 15.9081 3.69023 16.8841C3.55941 17.0583 3.50312 17.2772 3.53373 17.4929C3.56435 17.7086 3.67937 17.9032 3.85349 18.0341ZM9.27595 9.16267C9.76334 9.16267 10.2398 9.3072 10.645 9.57798C11.0503 9.84875 11.3661 10.2336 11.5527 10.6839C11.7392 11.1342 11.788 11.6297 11.6929 12.1077C11.5978 12.5857 11.3631 13.0248 11.0185 13.3695C10.6738 13.7141 10.2347 13.9488 9.75671 14.0439C9.27868 14.139 8.7832 14.0902 8.33291 13.9037C7.88262 13.7171 7.49775 13.4013 7.22697 12.996C6.95619 12.5908 6.81166 12.1143 6.81166 11.627C6.81166 10.9734 7.07129 10.3466 7.53343 9.88444C7.99558 9.4223 8.62238 9.16267 9.27595 9.16267ZM16.6688 0.126953H1.88309C1.44738 0.126953 1.02951 0.300039 0.721416 0.608135C0.413321 0.91623 0.240234 1.3341 0.240234 1.76981V19.8412C0.240234 20.277 0.413321 20.6948 0.721416 21.0029C1.02951 21.311 1.44738 21.4841 1.88309 21.4841H16.6688C17.1045 21.4841 17.5224 21.311 17.8305 21.0029C18.1386 20.6948 18.3117 20.277 18.3117 19.8412V1.76981C18.3117 1.3341 18.1386 0.91623 17.8305 0.608135C17.5224 0.300039 17.1045 0.126953 16.6688 0.126953ZM16.6688 19.8412H1.88309V1.76981H16.6688V19.8412ZM5.16881 4.2341C5.16881 4.01624 5.25535 3.80731 5.4094 3.65326C5.56344 3.49921 5.77238 3.41267 5.99023 3.41267H12.5617C12.7795 3.41267 12.9885 3.49921 13.1425 3.65326C13.2965 3.80731 13.3831 4.01624 13.3831 4.2341C13.3831 4.45195 13.2965 4.66089 13.1425 4.81493C12.9885 4.96898 12.7795 5.05552 12.5617 5.05552H5.99023C5.77238 5.05552 5.56344 4.96898 5.4094 4.81493C5.25535 4.66089 5.16881 4.45195 5.16881 4.2341Z" fill="white"/>
</svg>
