<svg width="20" height="25" viewBox="0 0 20 25" fill="none" xmlns="http://www.w3.org/2000/svg">
<path d="M17.0641 8.34404C16.5796 8.34351 16.1026 8.46462 15.677 8.69629C15.5497 8.30224 15.3398 7.9399 15.0613 7.63349C14.7827 7.32708 14.442 7.08365 14.0618 6.91949C13.6817 6.75533 13.2708 6.67421 12.8568 6.68156C12.4428 6.6889 12.0351 6.78454 11.661 6.96209V3.77217C11.661 3.00055 11.3545 2.26054 10.8089 1.71493C10.2633 1.16932 9.52325 0.862793 8.75164 0.862793C7.98002 0.862793 7.24001 1.16932 6.6944 1.71493C6.14879 2.26054 5.84226 3.00055 5.84226 3.77217V12.0847L5.44534 11.4477C5.25342 11.1172 4.99827 10.8277 4.69447 10.5957C4.39066 10.3638 4.04414 10.1939 3.6747 10.0959C2.92857 9.89791 2.13436 10.0044 1.46677 10.392C0.799187 10.7796 0.312918 11.4166 0.114939 12.1627C-0.0830412 12.9088 0.0234852 13.703 0.411084 14.3706L0.896326 15.2258C4.47174 21.5287 5.95136 24.1378 10.8298 24.1378C13.254 24.135 15.5781 23.1708 17.2923 21.4566C19.0065 19.7424 19.9708 17.4183 19.9735 14.994V11.2534C19.9735 10.4818 19.667 9.74179 19.1214 9.19618C18.5758 8.65057 17.8358 8.34404 17.0641 8.34404ZM18.311 14.994C18.3088 16.9775 17.5199 18.8791 16.1174 20.2817C14.7148 21.6842 12.8132 22.4731 10.8298 22.4753C6.91977 22.4753 5.85889 20.605 2.3427 14.4039L1.85538 13.5446V13.5394C1.68992 13.2533 1.6448 12.9132 1.72994 12.5939C1.81509 12.2745 2.02352 12.0021 2.30945 11.8363C2.49885 11.7266 2.71401 11.6692 2.93289 11.6701C3.15207 11.6698 3.36747 11.7272 3.55737 11.8367C3.74727 11.9461 3.90496 12.1037 4.01455 12.2935C4.01878 12.3018 4.02365 12.3098 4.0291 12.3174L5.96903 15.4346C6.06477 15.5875 6.20764 15.705 6.37607 15.7696C6.5445 15.8341 6.72935 15.8421 6.90273 15.7924C7.07611 15.7427 7.22861 15.6379 7.33721 15.4939C7.44581 15.3498 7.50462 15.1744 7.50476 14.994V3.77217C7.50476 3.44148 7.63613 3.12433 7.86996 2.89049C8.1038 2.65666 8.42095 2.52529 8.75164 2.52529C9.08233 2.52529 9.39948 2.65666 9.63331 2.89049C9.86715 3.12433 9.99851 3.44148 9.99851 3.77217V10.8378C9.99851 11.0583 10.0861 11.2697 10.242 11.4256C10.3979 11.5815 10.6093 11.669 10.8298 11.669C11.0502 11.669 11.2617 11.5815 11.4175 11.4256C11.5734 11.2697 11.661 11.0583 11.661 10.8378V9.59092C11.661 9.26023 11.7924 8.94308 12.0262 8.70924C12.26 8.47541 12.5772 8.34404 12.9079 8.34404C13.2386 8.34404 13.5557 8.47541 13.7896 8.70924C14.0234 8.94308 14.1548 9.26023 14.1548 9.59092V11.669C14.1548 11.8895 14.2423 12.1009 14.3982 12.2568C14.5541 12.4127 14.7656 12.5003 14.986 12.5003C15.2065 12.5003 15.4179 12.4127 15.5738 12.2568C15.7297 12.1009 15.8173 11.8895 15.8173 11.669V11.2534C15.8173 10.9227 15.9486 10.6056 16.1825 10.3717C16.4163 10.1379 16.7334 10.0065 17.0641 10.0065C17.3948 10.0065 17.712 10.1379 17.9458 10.3717C18.1796 10.6056 18.311 10.9227 18.311 11.2534V14.994Z" fill="white"/>
</svg>
