<svg width="45" height="43" viewBox="0 0 45 43" fill="none" xmlns="http://www.w3.org/2000/svg">
<path d="M43.7414 29.2032C43.5097 29.057 43.2448 28.9718 42.9714 28.9555C42.6979 28.9391 42.4248 28.9922 42.1774 29.1097C41.5582 29.4026 40.875 29.5341 40.1913 29.4921C39.5076 29.4501 38.8457 29.2359 38.267 28.8694C37.6884 28.503 37.2117 27.9961 36.8815 27.3961C36.5512 26.796 36.378 26.1222 36.378 25.4372C36.378 24.7523 36.5512 24.0784 36.8815 23.4784C37.2117 22.8783 37.6884 22.3715 38.267 22.005C38.8457 21.6386 39.5076 21.4244 40.1913 21.3824C40.875 21.3404 41.5582 21.4719 42.1774 21.7647C42.4251 21.8823 42.6985 21.9353 42.9722 21.9187C43.246 21.9021 43.511 21.8166 43.7428 21.67C43.9745 21.5234 44.1654 21.3205 44.2976 21.0803C44.4299 20.8401 44.4992 20.5703 44.4991 20.2961V11.6247C44.4991 10.7628 44.1567 9.93612 43.5472 9.32662C42.9377 8.71713 42.111 8.37472 41.2491 8.37472H33.8919C33.9221 8.10495 33.937 7.83368 33.9366 7.56222C33.9349 6.56323 33.7294 5.5751 33.3326 4.65828C32.9358 3.74146 32.3562 2.91525 31.6291 2.23019C30.622 1.28439 29.3676 0.643237 28.0111 0.380992C26.6546 0.118747 25.2516 0.24614 23.9646 0.748416C22.6776 1.25069 21.5591 2.1073 20.7389 3.21902C19.9186 4.33075 19.4301 5.6521 19.3298 7.03003C19.2986 7.4782 19.3082 7.92827 19.3583 8.37472H11.9991C11.1371 8.37472 10.3105 8.71713 9.70097 9.32662C9.09148 9.93612 8.74907 10.7628 8.74907 11.6247V18.1694C8.4793 18.1392 8.20803 18.1243 7.93657 18.1247C6.93787 18.1263 5.95001 18.3318 5.03351 18.7286C4.11701 19.1254 3.29117 19.7051 2.60657 20.4322C1.91706 21.1606 1.38613 22.024 1.04734 22.968C0.708549 23.912 0.569264 24.916 0.638287 25.9166C0.754734 27.6784 1.50335 29.339 2.74646 30.593C3.98957 31.8469 5.6436 32.6099 7.40438 32.7416C7.85255 32.7728 8.30262 32.7633 8.74907 32.7132V39.2497C8.74907 40.1117 9.09148 40.9383 9.70097 41.5478C10.3105 42.1573 11.1371 42.4997 11.9991 42.4997H41.2491C42.111 42.4997 42.9377 42.1573 43.5472 41.5478C44.1567 40.9383 44.4991 40.1117 44.4991 39.2497V30.5783C44.4992 30.3038 44.4298 30.0336 44.2973 29.7932C44.1649 29.5527 43.9736 29.3497 43.7414 29.2032ZM41.2491 39.2497H11.9991V30.5783C11.9992 30.3041 11.9299 30.0343 11.7976 29.7941C11.6654 29.5539 11.4745 29.3511 11.2428 29.2045C11.011 29.0579 10.7459 28.9723 10.4722 28.9557C10.1985 28.9392 9.92508 28.9922 9.67735 29.1097C9.05815 29.4026 8.37497 29.5341 7.69131 29.4921C7.00765 29.4501 6.34571 29.2359 5.76703 28.8694C5.18835 28.503 4.71172 27.9961 4.38145 27.3961C4.05118 26.796 3.878 26.1222 3.878 25.4372C3.878 24.7523 4.05118 24.0784 4.38145 23.4784C4.71172 22.8783 5.18835 22.3715 5.76703 22.005C6.34571 21.6386 7.00765 21.4244 7.69131 21.3824C8.37497 21.3404 9.05815 21.4719 9.67735 21.7647C9.92508 21.8823 10.1985 21.9353 10.4722 21.9187C10.7459 21.9021 11.011 21.8166 11.2428 21.67C11.4745 21.5234 11.6654 21.3205 11.7976 21.0803C11.9299 20.8401 11.9992 20.5703 11.9991 20.2961V11.6247H21.483C21.7572 11.6248 22.027 11.5555 22.2672 11.4233C22.5074 11.291 22.7102 11.1002 22.8568 10.8684C23.0034 10.6367 23.089 10.3716 23.1055 10.0979C23.1221 9.82418 23.0691 9.55073 22.9516 9.303C22.6587 8.68381 22.5272 8.00062 22.5692 7.31696C22.6112 6.6333 22.8254 5.97136 23.1919 5.39268C23.5583 4.814 24.0652 4.33737 24.6652 4.0071C25.2653 3.67684 25.9391 3.50365 26.6241 3.50365C27.309 3.50365 27.9829 3.67684 28.5829 4.0071C29.183 4.33737 29.6898 4.814 30.0563 5.39268C30.4227 5.97136 30.6369 6.6333 30.6789 7.31696C30.7209 8.00062 30.5894 8.68381 30.2966 9.303C30.179 9.55073 30.126 9.82418 30.1426 10.0979C30.1592 10.3716 30.2447 10.6367 30.3913 10.8684C30.5379 11.1002 30.7407 11.291 30.981 11.4233C31.2212 11.5555 31.491 11.6248 31.7652 11.6247H41.2491V18.1714C40.8027 18.1203 40.3525 18.1108 39.9044 18.143C38.0131 18.2769 36.2478 19.1402 34.9808 20.5507C33.7138 21.9612 33.0442 23.8087 33.1132 25.7035C33.1823 27.5982 33.9845 29.3921 35.3508 30.7067C36.7171 32.0213 38.5406 32.7538 40.4366 32.7497C40.708 32.7502 40.9793 32.7353 41.2491 32.705V39.2497Z" fill="black"/>
</svg>
