<svg width="24" height="19" viewBox="0 0 24 19" fill="none" xmlns="http://www.w3.org/2000/svg">
<path d="M18.0273 0.769775H6.52734C5.00285 0.771406 3.54126 1.37773 2.46328 2.45571C1.3853 3.53369 0.778975 4.99528 0.777344 6.51978V16.3769C0.777344 16.8126 0.95043 17.2305 1.25853 17.5386C1.56662 17.8467 1.98449 18.0198 2.4202 18.0198H22.1345C22.5702 18.0198 22.9881 17.8467 23.2962 17.5386C23.6043 17.2305 23.7773 16.8126 23.7773 16.3769V6.51978C23.7757 4.99528 23.1694 3.53369 22.0914 2.45571C21.0134 1.37773 19.5518 0.771406 18.0273 0.769775ZM22.1345 6.51978V7.3412H18.8488V2.49478C19.7758 2.68539 20.6089 3.18981 21.2074 3.923C21.8059 4.65619 22.1333 5.57331 22.1345 6.51978ZM13.0988 10.6269H11.4559V7.3412H13.0988V10.6269ZM10.6345 12.2698H13.9202C14.1381 12.2698 14.347 12.1832 14.501 12.0292C14.6551 11.8751 14.7416 11.6662 14.7416 11.4483V8.98406H17.2059V16.3769H7.34877V8.98406H9.81306V11.4483C9.81306 11.6662 9.8996 11.8751 10.0536 12.0292C10.2077 12.1832 10.4166 12.2698 10.6345 12.2698ZM14.7416 7.3412V6.51978C14.7416 6.30192 14.6551 6.09299 14.501 5.93894C14.347 5.78489 14.1381 5.69835 13.9202 5.69835H10.6345C10.4166 5.69835 10.2077 5.78489 10.0536 5.93894C9.8996 6.09299 9.81306 6.30192 9.81306 6.51978V7.3412H7.34877V2.41263H17.2059V7.3412H14.7416ZM5.70592 2.49478V7.3412H2.4202V6.51978C2.42136 5.57331 2.74879 4.65619 3.34732 3.923C3.94584 3.18981 4.77884 2.68539 5.70592 2.49478ZM2.4202 8.98406H5.70592V16.3769H2.4202V8.98406ZM22.1345 16.3769H18.8488V8.98406H22.1345V16.3769Z" fill="white"/>
</svg>
