<svg width="18" height="19" viewBox="0 0 18 19" fill="none" xmlns="http://www.w3.org/2000/svg">
<path d="M17.0268 1.47239C16.3859 0.831508 15.4788 0.579952 14.599 0.800568L2.64476 3.78888C1.05122 4.18726 -0.0117532 5.5584 9.80982e-05 7.20118C0.0119494 8.84395 1.09315 10.1995 2.69217 10.576L6.92764 11.5724L7.92407 15.8079C8.30058 17.4069 9.65615 18.4881 11.2989 18.4999C11.308 18.4999 11.3162 18.4999 11.3254 18.4999C12.9563 18.4999 14.3147 17.4397 14.7112 15.8553L17.6995 3.90105C17.9192 3.02041 17.6676 2.11327 17.0268 1.47239ZM16.3722 3.56731L13.3839 15.5217C13.084 16.7177 12.0747 17.1179 11.3081 17.1316C10.5377 17.1261 9.53764 16.694 9.25503 15.4934L8.24858 11.2177L12.1067 7.35976C12.3738 7.09265 12.3738 6.65959 12.1067 6.39248C11.8396 6.12537 11.4065 6.12537 11.1394 6.39248L7.28135 10.2506L3.00577 9.24413C1.80514 8.96152 1.37303 7.96138 1.36756 7.19105C1.36209 6.4198 1.78052 5.41429 2.9775 5.11527L14.9309 2.12696C15.0284 2.10235 15.1269 2.09046 15.2235 2.09046C15.5335 2.09046 15.8325 2.21269 16.0595 2.43878C16.3576 2.73689 16.4743 3.1589 16.3722 3.56731Z" fill="white"/>
</svg>
