<svg width="48" height="48" viewBox="0 0 48 48" fill="none" xmlns="http://www.w3.org/2000/svg">
<g clip-path="url(#clip0_1287_9364)">
<path fill-rule="evenodd" clip-rule="evenodd" d="M32.8985 20.3272C34.5256 22.3715 35.5061 24.9686 35.5061 27.7848C35.5061 30.601 34.5048 33.2711 32.8255 35.3363L32.6795 35.5136L32.6377 35.2841C32.6064 35.0964 32.5647 34.8982 32.523 34.7001C31.6886 31.0182 28.9559 27.8578 24.45 25.292C21.4148 23.571 19.6729 21.4954 19.214 19.1381C18.922 17.6153 19.141 16.0821 19.5582 14.7678C19.9858 13.4536 20.6117 12.3585 21.1436 11.7014L22.8959 9.56315C23.1984 9.18767 23.7825 9.18767 24.0849 9.56315L32.8985 20.3272ZM35.6625 18.189L23.9389 3.85781C23.7199 3.58662 23.2922 3.58662 23.0732 3.85781L11.3392 18.189L11.2975 18.2411C9.14882 20.9217 7.85547 24.322 7.85547 28.0247C7.85547 36.6505 14.8646 43.6492 23.5008 43.6492C32.1371 43.6492 39.1462 36.6505 39.1462 28.0247C39.1462 24.322 37.8529 20.9217 35.6938 18.2411L35.6625 18.189ZM14.1449 20.2854L15.1879 19.0025L15.2192 19.2424C15.2401 19.4302 15.2714 19.6179 15.3131 19.8057C15.9911 23.3624 18.4213 26.335 22.4682 28.6296C25.9937 30.6323 28.038 32.9373 28.6325 35.4719C28.8828 36.5253 28.9246 37.5684 28.8203 38.4758L28.8098 38.528L28.7577 38.5488C27.1723 39.3207 25.3783 39.7587 23.4904 39.7587C16.8672 39.7587 11.4956 34.3976 11.4956 27.7848C11.4956 24.9478 12.4865 22.3298 14.1449 20.2854Z" fill="#4DA2FF"/>
</g>
<defs>
<clipPath id="clip0_1287_9364">
<rect width="31.2907" height="40" fill="white" transform="translate(7.85547 3.64917)"/>
</clipPath>
</defs>
</svg>
