<svg width="26" height="22" viewBox="0 0 26 22" fill="none" xmlns="http://www.w3.org/2000/svg">
<path d="M8.17933 21.2664C17.9882 21.2664 23.3548 13.1378 23.3548 6.09093C23.3548 5.86242 23.3497 5.62882 23.3396 5.40031C24.3835 4.64533 25.2844 3.71019 26 2.63882C25.0277 3.0714 23.9954 3.35391 22.9384 3.47671C24.0514 2.80957 24.8847 1.76151 25.284 0.526832C24.2369 1.14736 23.0919 1.58508 21.8979 1.82125C21.0934 0.966443 20.0297 0.400461 18.8713 0.210807C17.7129 0.021153 16.5243 0.21839 15.4892 0.772023C14.4541 1.32566 13.6303 2.20485 13.145 3.27367C12.6597 4.34249 12.8045 6.68507 12.8045 6.68507C12.8045 6.68507 8.61026 6.02793 6.71664 5.06852C4.82303 4.10912 3.15217 2.76247 1.81238 1.11589C1.13143 2.28993 0.923061 3.6792 1.22962 5.00135C1.53617 6.3235 2.33465 7.47932 3.46277 8.2339C2.61585 8.20701 1.78747 7.97899 1.04609 7.56867V7.63468C1.04533 8.86675 1.47127 10.0611 2.2515 11.0146C3.03173 11.9681 4.1181 12.622 5.32593 12.8652C4.54139 13.0798 3.71798 13.1111 2.91941 12.9566C3.26024 14.0161 3.92337 14.9429 4.81625 15.6074C5.70913 16.272 6.78721 16.6412 7.90004 16.6636C6.01079 18.1476 3.67702 18.9526 1.27461 18.9487C0.848561 18.9481 0.422932 18.922 0 18.8705C2.44059 20.4363 5.27966 21.2679 8.17933 21.2664Z" fill="white"/>
</svg>
