<svg width="16" height="15" viewBox="0 0 16 15" fill="none" xmlns="http://www.w3.org/2000/svg">
<path d="M14.325 1.50933C12.5188 -0.00942248 9.72813 0.218702 8 1.97808C6.27188 0.218702 3.48125 -0.0125476 1.675 1.50933C-0.674996 3.48745 -0.331246 6.71245 1.34375 8.42183L6.825 14.0062C7.1375 14.325 7.55625 14.5031 8 14.5031C8.44688 14.5031 8.8625 14.3281 9.175 14.0093L14.6563 8.42495C16.3281 6.71558 16.6781 3.49058 14.325 1.50933ZM13.5875 7.3687L8.10625 12.9531C8.03125 13.0281 7.96875 13.0281 7.89375 12.9531L2.4125 7.3687C1.27188 6.2062 1.04063 4.0062 2.64063 2.65933C3.85625 1.63745 5.73125 1.79058 6.90625 2.98745L8 4.10308L9.09375 2.98745C10.275 1.78433 12.15 1.63745 13.3594 2.6562C14.9563 4.00308 14.7188 6.21558 13.5875 7.3687Z" fill="white"/>
</svg>
