<svg width="26" height="19" viewBox="0 0 26 19" fill="none" xmlns="http://www.w3.org/2000/svg">
<path d="M13.0829 0.248047H13.2275C14.5632 0.252922 21.3314 0.301672 23.1562 0.792422C23.7079 0.942196 24.2106 1.23413 24.6141 1.63906C25.0176 2.04399 25.3078 2.54772 25.4556 3.09992C25.6197 3.71742 25.7351 4.5348 25.8131 5.37817L25.8294 5.54717L25.8651 5.96967L25.8781 6.13867C25.9837 7.62392 25.9967 9.01492 25.9984 9.3188V9.44067C25.9967 9.75592 25.9821 11.2412 25.8651 12.7882L25.8521 12.9588L25.8375 13.1278C25.7562 14.0573 25.636 14.9803 25.4556 15.6595C25.3082 16.212 25.0182 16.7159 24.6147 17.1209C24.2111 17.5259 23.7081 17.8177 23.1562 17.967C21.2712 18.474 14.1066 18.5098 13.1137 18.5114H12.883C12.3809 18.5114 10.3041 18.5017 8.12662 18.4269L7.85037 18.4172L7.709 18.4107L7.43112 18.3993L7.15325 18.3879C5.3495 18.3083 3.63187 18.1799 2.8405 17.9654C2.2888 17.8162 1.78598 17.5247 1.38243 17.12C0.978873 16.7153 0.688751 16.2117 0.541125 15.6595C0.36075 14.9819 0.2405 14.0573 0.15925 13.1278L0.14625 12.9572L0.13325 12.7882C0.0530524 11.6871 0.00861228 10.5837 0 9.47967L0 9.2798C0.00325 8.93042 0.01625 7.72305 0.104 6.39055L0.115375 6.22317L0.12025 6.13867L0.13325 5.96967L0.169 5.54717L0.18525 5.37817C0.26325 4.5348 0.378625 3.7158 0.54275 3.09992C0.690127 2.5475 0.980139 2.04353 1.38371 1.63853C1.78728 1.23353 2.29023 0.941747 2.84212 0.792422C3.6335 0.581172 5.35112 0.451172 7.15487 0.369922L7.43112 0.358547L7.71062 0.348797L7.85037 0.343922L8.12825 0.332547C9.67477 0.282781 11.2219 0.255153 12.7692 0.249672H13.0829V0.248047ZM10.4 5.4643V13.2935L17.1551 9.38055L10.4 5.4643Z" fill="white"/>
</svg>
